<svg width="48" height="48" viewBox="0 0 48 48" fill="none" xmlns="http://www.w3.org/2000/svg">
<mask id="mask0_21_172" style="mask-type:alpha" maskUnits="userSpaceOnUse" x="0" y="0" width="48" height="48">
<rect width="48" height="48" fill="#D9D9D9"/>
</mask>
<g mask="url(#mask0_21_172)">
<path d="M24.003 28.65C27.4343 28.65 30.4583 27.6583 33.075 25.675C35.6917 23.6917 37 21.0833 37 17.85C37 16.5167 36.7583 15.2917 36.275 14.175C35.7917 13.0583 35.1167 12.05 34.25 11.15C31.85 11.1833 29.7917 12.0443 28.075 13.733C26.3583 15.4217 25.5 17.4773 25.5 19.9H22.5C22.5 17.4333 21.6333 15.3583 19.9 13.675C18.1667 11.9917 16.1 11.15 13.7 11.15C12.839 12.051 12.1738 13.0645 11.7045 14.1905C11.2348 15.3165 11 16.5363 11 17.85C11 21.0833 12.3093 23.6917 14.928 25.675C17.5467 27.6583 20.5717 28.65 24.003 28.65ZM16.741 19.35C16.3137 19.35 15.9583 19.2053 15.675 18.916C15.3917 18.627 15.25 18.2687 15.25 17.841C15.25 17.4137 15.3947 17.0583 15.684 16.775C15.973 16.4917 16.3313 16.35 16.759 16.35C17.1863 16.35 17.5417 16.4947 17.825 16.784C18.1083 17.073 18.25 17.4313 18.25 17.859C18.25 18.2863 18.1053 18.6417 17.816 18.925C17.527 19.2083 17.1687 19.35 16.741 19.35ZM31.241 19.35C30.8137 19.35 30.4583 19.2053 30.175 18.916C29.8917 18.627 29.75 18.2687 29.75 17.841C29.75 17.4137 29.8947 17.0583 30.184 16.775C30.473 16.4917 30.8313 16.35 31.259 16.35C31.6863 16.35 32.0417 16.4947 32.325 16.784C32.6083 17.073 32.75 17.4313 32.75 17.859C32.75 18.2863 32.6053 18.6417 32.316 18.925C32.027 19.2083 31.6687 19.35 31.241 19.35ZM24 44C19.5667 44 15.7917 42.4597 12.675 39.379C9.55833 36.2983 8 32.5387 8 28.1V17.85C8 13.827 9.6 10.5128 12.8 7.9075C16 5.3025 19.7333 4 24 4C28.2667 4 32 5.3025 35.2 7.9075C38.4 10.5128 40 13.827 40 17.85V41H37C34.8 41 32.9167 40.2167 31.35 38.65C29.7833 37.0833 29 35.2 29 33V30.9C28.5 31.0633 28 31.1975 27.5 31.3025C27 31.4075 26.5 31.4833 26 31.53V33C26 36.0433 27.0725 38.6375 29.2175 40.7825C31.3625 42.9275 33.9567 44 37 44H24Z" fill="#1C1B1F"/>
</g>
</svg>
