<svg width="48" height="48" viewBox="0 0 48 48" fill="none" xmlns="http://www.w3.org/2000/svg">
<mask id="mask0_95_2720" style="mask-type:alpha" maskUnits="userSpaceOnUse" x="0" y="0" width="48" height="48">
<rect width="48" height="48" fill="#D9D9D9"/>
</mask>
<g mask="url(#mask0_95_2720)">
<path d="M24.006 31.5C26.3687 31.5 28.375 30.673 30.025 29.019C31.675 27.365 32.5 25.3567 32.5 22.994C32.5 20.6313 31.673 18.625 30.019 16.975C28.365 15.325 26.3567 14.5 23.994 14.5C21.6313 14.5 19.625 15.327 17.975 16.981C16.325 18.635 15.5 20.6433 15.5 23.006C15.5 25.3687 16.327 27.375 17.981 29.025C19.635 30.675 21.6433 31.5 24.006 31.5ZM23.988 28.6C22.4293 28.6 21.1083 28.0543 20.025 26.963C18.9417 25.872 18.4 24.547 18.4 22.988C18.4 21.4293 18.9457 20.1083 20.037 19.025C21.128 17.9417 22.453 17.4 24.012 17.4C25.5707 17.4 26.8917 17.9457 27.975 19.037C29.0583 20.128 29.6 21.453 29.6 23.012C29.6 24.5707 29.0543 25.8917 27.963 26.975C26.872 28.0583 25.547 28.6 23.988 28.6ZM24 38C19.1333 38 14.7333 36.6167 10.8 33.85C6.86667 31.0833 3.93333 27.4667 2 23C3.93333 18.5333 6.86667 14.9167 10.8 12.15C14.7333 9.38333 19.1333 8 24 8C28.8667 8 33.2667 9.38333 37.2 12.15C41.1333 14.9167 44.0667 18.5333 46 23C44.0667 27.4667 41.1333 31.0833 37.2 33.85C33.2667 36.6167 28.8667 38 24 38ZM23.9915 35C28.0305 35 31.7417 33.9083 35.125 31.725C38.5083 29.5417 41.0833 26.6333 42.85 23C41.0833 19.3667 38.5112 16.4583 35.1335 14.275C31.7558 12.0917 28.0475 11 24.0085 11C19.9695 11 16.2583 12.0917 12.875 14.275C9.49167 16.4583 6.9 19.3667 5.1 23C6.9 26.6333 9.48883 29.5417 12.8665 31.725C16.2442 33.9083 19.9525 35 23.9915 35Z" fill="#1C1B1F"/>
</g>
</svg>
